<svg id="Layer_1" data-name="Layer 1" xmlns="http://www.w3.org/2000/svg" viewBox="0 0 233 236"><defs><style>.cls-1{fill:#231f20;fill-rule:evenodd;}</style></defs><path class="cls-1" d="M122.83,46.84a17.1,17.1,0,1,1-17.1,17.1A17.11,17.11,0,0,1,122.83,46.84Z" transform="translate(0 0)"/><path class="cls-1" d="M54,139H178a15,15,0,0,1,15,15v42a4,4,0,0,1-4,4H45a4,4,0,0,1-4-4V152A13,13,0,0,1,54,139Z" transform="translate(0 0)"/><path class="cls-1" d="M0,236H9V183H0Z" transform="translate(0 0)"/><path class="cls-1" d="M0,227v9H53v-9Z" transform="translate(0 0)"/><path class="cls-1" d="M233,236h-9V183h9Z" transform="translate(0 0)"/><path class="cls-1" d="M233,227v9H180v-9Z" transform="translate(0 0)"/><path class="cls-1" d="M233,0h-9V53h9Z" transform="translate(0 0)"/><path class="cls-1" d="M233,9V0H180V9Z" transform="translate(0 0)"/><path class="cls-1" d="M0,0H9V53H0Z" transform="translate(0 0)"/><path class="cls-1" d="M0,9V0H53V9Z" transform="translate(0 0)"/><path class="cls-1" d="M42,148l30-45s52.46,35.3,60,35,28-23,28-23l33,23v17l-37,17Z" transform="translate(0 0)"/></svg>