<?xml version="1.0" encoding="utf-8"?>
<!-- Generator: Adobe Illustrator 26.0.0, SVG Export Plug-In . SVG Version: 6.00 Build 0)  -->
<svg version="1.1" id="Layer_1" xmlns="http://www.w3.org/2000/svg" xmlns:xlink="http://www.w3.org/1999/xlink" x="0px" y="0px"
	 viewBox="0 0 233 236" style="enable-background:new 0 0 233 236;" xml:space="preserve">
<style type="text/css">
	.st0{fill-rule:evenodd;clip-rule:evenodd;fill:#E0E0E0;}
</style>
<path class="st0" d="M122.8,46.8c9.4,0,17.1,7.7,17.1,17.1S132.3,81,122.8,81s-17.1-7.7-17.1-17.1C105.7,54.5,113.4,46.8,122.8,46.8
	z"/>
<path class="st0" d="M54,139h124c8.3,0,15,6.7,15,15l0,0v42c0,2.2-1.8,4-4,4H45c-2.2,0-4-1.8-4-4v-44C41,144.8,46.8,139,54,139
	L54,139z"/>
<path class="st0" d="M0,236h9v-53H0V236z"/>
<path class="st0" d="M0,227v9h53v-9H0z"/>
<path class="st0" d="M233,236h-9v-53h9V236z"/>
<path class="st0" d="M233,227v9h-53v-9H233z"/>
<path class="st0" d="M233,0h-9v53h9V0z"/>
<path class="st0" d="M233,9V0h-53v9H233z"/>
<path class="st0" d="M0,0h9v53H0V0z"/>
<path class="st0" d="M0,9V0h53v9H0z"/>
<path class="st0" d="M42,148l30-45c0,0,52.5,35.3,60,35c7.5-0.3,28-23,28-23l33,23v17l-37,17L42,148z"/>
</svg>
